<svg height="1038" width="720" xmlns="http://www.w3.org/2000/svg">
<rect height="1038" fill="#555" width="720"></rect>
<text fill="#7f7" font-family="Courier New" font-size="12" xml:space="preserve">
<tspan x="10" y="26">10 megabytes installed</tspan>
<tspan x="10" y="42"></tspan>
<tspan x="10" y="58">node_modules</tspan>
<tspan x="10" y="74">└─┬ istanbul@0.4.5 </tspan>
<tspan x="10" y="90">  ├── abbrev@1.0.9 </tspan>
<tspan x="10" y="106">  ├── async@1.5.2 </tspan>
<tspan x="10" y="122">  ├─┬ escodegen@1.8.1 </tspan>
<tspan x="10" y="138">  │ ├── estraverse@1.9.3 </tspan>
<tspan x="10" y="154">  │ ├── esutils@2.0.2 </tspan>
<tspan x="10" y="170">  │ ├─┬ optionator@0.8.2 </tspan>
<tspan x="10" y="186">  │ │ ├── deep-is@0.1.3 </tspan>
<tspan x="10" y="202">  │ │ ├── fast-levenshtein@2.0.6 </tspan>
<tspan x="10" y="218">  │ │ ├── levn@0.3.0 </tspan>
<tspan x="10" y="234">  │ │ ├── prelude-ls@1.1.2 </tspan>
<tspan x="10" y="250">  │ │ └── type-check@0.3.2 </tspan>
<tspan x="10" y="266">  │ └─┬ source-map@0.2.0 </tspan>
<tspan x="10" y="282">  │   └── amdefine@1.0.1 </tspan>
<tspan x="10" y="298">  ├── esprima@2.7.3 </tspan>
<tspan x="10" y="314">  ├─┬ glob@5.0.15 </tspan>
<tspan x="10" y="330">  │ ├── inflight@1.0.6 </tspan>
<tspan x="10" y="346">  │ ├── inherits@2.0.3 </tspan>
<tspan x="10" y="362">  │ ├─┬ minimatch@3.0.3 </tspan>
<tspan x="10" y="378">  │ │ └─┬ brace-expansion@1.1.7 </tspan>
<tspan x="10" y="394">  │ │   ├── balanced-match@0.4.2 </tspan>
<tspan x="10" y="410">  │ │   └── concat-map@0.0.1 </tspan>
<tspan x="10" y="426">  │ └── path-is-absolute@1.0.1 </tspan>
<tspan x="10" y="442">  ├─┬ handlebars@4.0.6 </tspan>
<tspan x="10" y="458">  │ ├─┬ optimist@0.6.1 </tspan>
<tspan x="10" y="474">  │ │ ├── minimist@0.0.10 </tspan>
<tspan x="10" y="490">  │ │ └── wordwrap@0.0.3 </tspan>
<tspan x="10" y="506">  │ ├── source-map@0.4.4 </tspan>
<tspan x="10" y="522">  │ └─┬ uglify-js@2.8.22 </tspan>
<tspan x="10" y="538">  │   ├── source-map@0.5.6 </tspan>
<tspan x="10" y="554">  │   ├── uglify-to-browserify@1.0.2 </tspan>
<tspan x="10" y="570">  │   └─┬ yargs@3.10.0 </tspan>
<tspan x="10" y="586">  │     ├── camelcase@1.2.1 </tspan>
<tspan x="10" y="602">  │     ├─┬ cliui@2.1.0 </tspan>
<tspan x="10" y="618">  │     │ ├─┬ center-align@0.1.3 </tspan>
<tspan x="10" y="634">  │     │ │ ├─┬ align-text@0.1.4 </tspan>
<tspan x="10" y="650">  │     │ │ │ ├─┬ kind-of@3.1.0 </tspan>
<tspan x="10" y="666">  │     │ │ │ │ └── is-buffer@1.1.5 </tspan>
<tspan x="10" y="682">  │     │ │ │ ├── longest@1.0.1 </tspan>
<tspan x="10" y="698">  │     │ │ │ └── repeat-string@1.6.1 </tspan>
<tspan x="10" y="714">  │     │ │ └── lazy-cache@1.0.4 </tspan>
<tspan x="10" y="730">  │     │ ├── right-align@0.1.3 </tspan>
<tspan x="10" y="746">  │     │ └── wordwrap@0.0.2 </tspan>
<tspan x="10" y="762">  │     ├── decamelize@1.2.0 </tspan>
<tspan x="10" y="778">  │     └── window-size@0.1.0 </tspan>
<tspan x="10" y="794">  ├─┬ js-yaml@3.8.3 </tspan>
<tspan x="10" y="810">  │ ├─┬ argparse@1.0.9 </tspan>
<tspan x="10" y="826">  │ │ └── sprintf-js@1.0.3 </tspan>
<tspan x="10" y="842">  │ └── esprima@3.1.3 </tspan>
<tspan x="10" y="858">  ├─┬ mkdirp@0.5.1 </tspan>
<tspan x="10" y="874">  │ └── minimist@0.0.8 </tspan>
<tspan x="10" y="890">  ├── nopt@3.0.6 </tspan>
<tspan x="10" y="906">  ├─┬ once@1.4.0 </tspan>
<tspan x="10" y="922">  │ └── wrappy@1.0.2 </tspan>
<tspan x="10" y="938">  ├── resolve@1.1.7 </tspan>
<tspan x="10" y="954">  ├─┬ supports-color@3.2.3 </tspan>
<tspan x="10" y="970">  │ └── has-flag@1.0.0 </tspan>
<tspan x="10" y="986">  ├─┬ which@1.2.14 </tspan>
<tspan x="10" y="1002">  │ └── isexe@2.0.0 </tspan>
<tspan x="10" y="1018">  └── wordwrap@1.0.0</tspan>
</text>
</svg>
